<?xml version="1.0" standalone="no"?>
<!DOCTYPE svg PUBLIC "-//W3C//DTD SVG 1.1//EN"
"http://www.w3.org/Graphics/SVG/1.1/DTD/svg11.dtd">
<!-- Creator: fig2dev Version 3.2 Patchlevel 5d -->
<!-- CreationDate: Sun Nov 27 19:12:31 2011 -->
<!-- Magnification: 1.050 -->
<svg	xmlns="http://www.w3.org/2000/svg"
	xmlns:xlink="http://www.w3.org/1999/xlink"
	width="5.5in" height="2.0in"
	viewBox="1404 932 6639 2387">
<g style="stroke-width:.025in; fill:none">
<!-- Line: box -->
<rect x="6283" y="2220" width="897" height="141" rx="0" 
style="stroke:#00d100;stroke-width:0;
stroke-linejoin:miter; stroke-linecap:butt;
fill:#e0ffe0;
"/>
<!-- Line -->
<polyline points="1417,3307
1419,3306
1423,3304
1430,3302
1442,3298
1458,3293
1480,3285
1506,3275
1537,3264
1571,3251
1609,3235
1650,3219
1692,3202
1735,3183
1779,3163
1822,3143
1864,3122
1905,3100
1944,3078
1982,3056
2017,3033
2051,3009
2083,2985
2115,2960
2143,2935
2172,2908
2199,2879
2224,2850
2249,2819
2275,2787
2299,2752
2323,2717
2343,2682
2364,2647
2385,2611
2406,2572
2427,2533
2448,2492
2469,2450
2490,2407
2512,2363
2533,2319
2555,2272
2576,2227
2598,2181
2619,2135
2641,2089
2662,2044
2684,1998
2705,1954
2726,1912
2747,1870
2768,1830
2788,1793
2808,1757
2828,1723
2847,1692
2866,1664
2883,1637
2901,1614
2919,1593
2936,1575
2953,1561
2969,1549
2985,1541
3000,1535
3016,1533
3032,1535
3046,1540
3061,1548
3076,1559
3090,1573
3105,1591
3120,1612
3135,1635
3150,1662
3166,1692
3181,1724
3196,1759
3212,1797
3227,1836
3243,1878
3259,1922
3275,1967
3291,2014
3307,2061
3322,2111
3338,2161
3354,2211
3371,2261
3386,2311
3401,2362
3417,2411
3433,2459
3447,2508
3463,2554
3478,2600
3493,2644
3508,2686
3523,2727
3538,2766
3552,2804
3567,2839
3583,2874
3602,2915
3622,2953
3641,2987
3664,3020
3686,3049
3709,3077
3733,3102
3759,3126
3786,3147
3816,3167
3846,3185
3880,3202
3913,3217
3949,3232
3986,3245
4023,3257
4059,3268
4095,3276
4129,3285
4159,3291
4185,3296
4207,3300
4224,3302
4237,3304
4245,3306
4249,3307
4251,3307
" style="stroke:#0000d1;stroke-width:0;
stroke-linejoin:bevel; stroke-linecap:butt;
fill:#e0e0ff;
"/>
<!-- Line: box -->
<rect x="1417" y="2362" width="2834" height="944" rx="0" 
style="stroke:#000000;stroke-width:0;
stroke-linejoin:miter; stroke-linecap:butt;
fill:#ffffff;
"/>
<!-- Line: box -->
<rect x="5196" y="3165" width="2834" height="141" rx="0" 
style="stroke:#0000d1;stroke-width:8;
stroke-linejoin:miter; stroke-linecap:butt;
fill:#e0e0ff;
"/>
<!-- Line: box -->
<rect x="5196" y="944" width="2834" height="2362" rx="0" 
style="stroke:#000000;stroke-width:8;
stroke-linejoin:miter; stroke-linecap:butt;
"/>
<!-- Line: box -->
<rect x="1417" y="944" width="2834" height="2362" rx="0" 
style="stroke:#000000;stroke-width:8;
stroke-linejoin:miter; stroke-linecap:butt;
"/>
<!-- Line -->
<polyline points="1417,3307
1419,3306
1423,3304
1430,3302
1442,3298
1458,3293
1480,3285
1506,3275
1537,3264
1571,3251
1609,3235
1650,3219
1692,3202
1735,3183
1779,3163
1822,3143
1864,3122
1905,3100
1944,3078
1982,3056
2017,3033
2051,3009
2083,2985
2115,2960
2143,2935
2172,2908
2199,2879
2224,2850
2249,2819
2275,2787
2299,2752
2323,2717
2343,2682
2364,2647
2385,2611
2406,2572
2427,2533
2448,2492
2469,2450
2490,2407
2512,2363
2533,2319
2555,2272
2576,2227
2598,2181
2619,2135
2641,2089
2662,2044
2684,1998
2705,1954
2726,1912
2747,1870
2768,1830
2788,1793
2808,1757
2828,1723
2847,1692
2866,1664
2883,1637
2901,1614
2919,1593
2936,1575
2953,1561
2969,1549
2985,1541
3000,1535
3016,1533
3032,1535
3046,1540
3061,1548
3076,1559
3090,1573
3105,1591
3120,1612
3135,1635
3150,1662
3166,1692
3181,1724
3196,1759
3212,1797
3227,1836
3243,1878
3259,1922
3275,1967
3291,2014
3307,2061
3322,2111
3338,2161
3354,2211
3371,2261
3386,2311
3401,2362
3417,2411
3433,2459
3447,2508
3463,2554
3478,2600
3493,2644
3508,2686
3523,2727
3538,2766
3552,2804
3567,2839
3583,2874
3602,2915
3622,2953
3641,2987
3664,3020
3686,3049
3709,3077
3733,3102
3759,3126
3786,3147
3816,3167
3846,3185
3880,3202
3913,3217
3949,3232
3986,3245
4023,3257
4059,3268
4095,3276
4129,3285
4159,3291
4185,3296
4207,3300
4224,3302
4237,3304
4245,3306
4249,3307
4251,3307
" style="stroke:#000000;stroke-width:8;
stroke-linejoin:bevel; stroke-linecap:butt;
"/>
<!-- Line -->
<polyline points="5196,3165
5198,3164
5203,3163
5210,3161
5222,3156
5237,3151
5259,3143
5286,3133
5316,3122
5351,3109
5388,3093
5429,3078
5471,3060
5514,3041
5559,3021
5602,3001
5644,2980
5685,2958
5723,2936
5761,2914
5797,2891
5830,2868
5863,2844
5895,2818
5923,2793
5951,2766
5979,2738
6004,2708
6029,2678
6054,2645
6078,2611
6102,2575
6122,2540
6143,2506
6164,2469
6185,2430
6206,2391
6227,2350
6248,2308
6269,2265
6291,2221
6312,2177
6334,2131
6355,2086
6377,2039
6398,1993
6420,1947
6441,1902
6464,1857
6485,1813
6506,1771
6527,1729
6548,1689
6567,1651
6587,1615
6607,1582
6626,1550
6645,1522
6663,1496
6681,1472
6699,1451
6716,1434
6732,1419
6748,1407
6765,1399
6780,1394
6795,1392
6811,1394
6826,1398
6840,1406
6855,1417
6870,1432
6885,1449
6899,1470
6915,1493
6930,1521
6945,1550
6960,1583
6976,1617
6992,1655
7006,1694
7022,1736
7039,1780
7055,1825
7070,1872
7086,1920
7102,1969
7118,2019
7133,2069
7150,2119
7166,2170
7181,2220
7196,2269
7212,2318
7227,2366
7243,2412
7257,2458
7273,2502
7288,2544
7302,2585
7317,2624
7332,2662
7346,2698
7362,2732
7381,2773
7401,2811
7421,2846
7443,2878
7465,2908
7488,2935
7512,2960
7539,2984
7566,3005
7595,3025
7626,3043
7659,3060
7693,3076
7729,3090
7765,3103
7802,3116
7839,3126
7875,3134
7908,3143
7939,3149
7965,3154
7987,3159
8004,3161
8016,3163
8025,3164
8029,3165
8031,3165
" style="stroke:#000000;stroke-width:8;
stroke-linejoin:bevel; stroke-linecap:butt;
"/>
<!-- Line: box -->
<rect x="6094" y="1228" width="1417" height="992" rx="0" 
style="stroke:#000000;stroke-width:0;
stroke-linejoin:miter; stroke-linecap:butt;
fill:#ffffff;
"/>
<!-- Line -->
<polyline points="5196,2362
8031,2362
" style="stroke:#000000;stroke-width:8;
stroke-linejoin:miter; stroke-linecap:butt;
"/>
<!-- Line -->
<polyline points="6283,2220
7181,2220
" style="stroke:#000000;stroke-width:8;
stroke-linejoin:miter; stroke-linecap:butt;
"/>
<!-- Line -->
<polyline points="1417,2362
4251,2362
" style="stroke:#000000;stroke-width:8;
stroke-linejoin:miter; stroke-linecap:butt;
"/>
<!-- Line -->
<polyline points="3070,1889
3074,1889
3079,1889
3090,1890
3107,1891
3130,1892
3161,1893
3198,1897
3240,1899
3289,1902
3339,1906
3394,1911
3448,1917
3504,1922
3558,1928
3611,1935
3661,1943
3710,1951
3755,1961
3797,1970
3837,1981
3874,1991
3908,2003
3941,2016
3970,2030
3997,2045
4024,2061
4049,2078
4072,2097
4094,2118
4115,2139
4136,2162
4155,2186
4175,2213
4193,2240
4212,2268
4228,2299
4246,2330
4263,2362
4280,2395
4296,2430
4311,2466
4327,2501
4343,2537
4358,2573
4372,2609
4387,2645
4401,2681
4414,2716
4428,2750
4441,2784
4454,2815
4468,2847
4480,2876
4493,2904
4506,2931
4519,2956
4532,2980
4545,3002
4559,3023
4576,3047
4595,3069
4614,3089
4635,3107
4657,3123
4681,3137
4707,3149
4735,3160
4767,3170
4801,3179
4835,3186
4873,3192
4912,3197
4951,3202
4990,3205
5026,3208
5059,3210
5088,3211
5111,3211
5023,3209
" style="stroke:#0000ff;stroke-width:32;
stroke-linejoin:bevel; stroke-linecap:butt;
"/>
<!-- Arrowhead on XXXpoint 5111 3211 - 5195 3213-->
<polygon points="4985 3247
5112 3211
4986 3168
4985 3247

" style="stroke:#0000ff;stroke-width:48;stroke-miterlimit:8;
fill:#0000ff;"/>
</g>
</svg>
